<svg width="798" height="240" viewBox="0 0 798 240" fill="none" xmlns="http://www.w3.org/2000/svg">
<rect y="16" width="798" height="224" rx="112" fill="#187498"/>
<path d="M211.406 208.36L211.586 206.68C212.506 206.52 213.116 206.26 213.416 205.9C213.716 205.54 213.866 204.94 213.866 204.1L213.896 192.01C213.896 191.37 213.826 190.94 213.686 190.72C213.566 190.5 213.286 190.39 212.846 190.39C212.666 190.39 212.456 190.4 212.216 190.42C211.976 190.44 211.856 190.45 211.856 190.45L211.736 190.27L211.976 188.74C211.976 188.74 212.126 188.75 212.426 188.77C212.726 188.77 213.116 188.78 213.596 188.8C214.076 188.8 214.596 188.81 215.156 188.83C215.716 188.83 216.236 188.83 216.716 188.83C218.056 188.83 219.236 188.82 220.256 188.8C221.296 188.78 222.216 188.74 223.016 188.68C223.836 188.62 224.546 188.55 225.146 188.47L225.296 188.71C225.296 188.71 225.256 188.96 225.176 189.46C225.096 189.94 224.996 190.58 224.876 191.38C224.776 192.18 224.696 193.04 224.636 193.96L222.656 194.11C222.656 194.11 222.666 193.94 222.686 193.6C222.706 193.26 222.716 192.99 222.716 192.79C222.716 192.17 222.636 191.72 222.476 191.44C222.316 191.16 221.976 190.98 221.456 190.9C220.936 190.8 220.136 190.75 219.056 190.75C218.476 190.75 218.056 190.77 217.796 190.81C217.536 190.85 217.366 190.95 217.286 191.11C217.226 191.27 217.186 191.52 217.166 191.86L216.926 197.68L219.896 197.71C220.216 197.71 220.616 197.69 221.096 197.65C221.596 197.59 222.046 197.54 222.446 197.5C222.846 197.44 223.046 197.41 223.046 197.41L223.226 197.62L222.806 199.75C222.806 199.75 222.596 199.74 222.176 199.72C221.776 199.7 221.286 199.69 220.706 199.69C220.146 199.67 219.636 199.66 219.176 199.66C218.736 199.66 218.306 199.69 217.886 199.75C217.466 199.79 217.126 199.83 216.866 199.87L216.776 204.25C216.776 205.03 216.856 205.56 217.016 205.84C217.196 206.1 217.546 206.23 218.066 206.23C218.286 206.23 218.556 206.22 218.876 206.2C219.216 206.18 219.506 206.16 219.746 206.14C220.006 206.12 220.136 206.11 220.136 206.11L220.256 206.32L219.986 208.12C219.986 208.12 219.816 208.11 219.476 208.09C219.156 208.09 218.756 208.08 218.276 208.06C217.796 208.04 217.296 208.02 216.776 208C216.256 208 215.806 208 215.426 208C214.806 208 214.186 208.03 213.566 208.09C212.946 208.15 212.426 208.21 212.006 208.27C211.606 208.33 211.406 208.36 211.406 208.36ZM226.074 208.36L226.254 206.83C226.854 206.69 227.284 206.47 227.544 206.17C227.804 205.85 227.934 205.43 227.934 204.91V197.8C227.934 197.22 227.844 196.8 227.664 196.54C227.484 196.28 227.184 196.15 226.764 196.15C226.624 196.15 226.464 196.17 226.284 196.21C226.124 196.25 226.044 196.27 226.044 196.27L226.164 194.89C226.764 194.79 227.354 194.69 227.934 194.59C228.514 194.49 229.044 194.39 229.524 194.29C230.004 194.19 230.384 194.11 230.664 194.05C230.964 193.99 231.114 193.96 231.114 193.96L231.324 194.38C231.224 194.58 231.124 195.01 231.024 195.67C230.944 196.33 230.874 197.15 230.814 198.13C230.754 199.09 230.704 200.16 230.664 201.34C230.644 202.5 230.634 203.71 230.634 204.97C230.634 205.49 230.704 205.87 230.844 206.11C231.004 206.35 231.264 206.47 231.624 206.47C231.784 206.47 231.984 206.46 232.224 206.44C232.464 206.42 232.584 206.41 232.584 206.41L232.644 206.56L232.374 208.09C232.374 208.09 232.274 208.08 232.074 208.06C231.894 208.06 231.654 208.05 231.354 208.03C231.054 208.03 230.734 208.02 230.394 208C230.054 208 229.734 208 229.434 208C228.974 208 228.484 208.03 227.964 208.09C227.444 208.15 226.994 208.21 226.614 208.27C226.254 208.33 226.074 208.36 226.074 208.36ZM229.074 190.87C228.494 190.87 228.054 190.69 227.754 190.33C227.474 189.97 227.334 189.55 227.334 189.07C227.334 188.49 227.524 188 227.904 187.6C228.284 187.2 228.774 187 229.374 187C229.934 187 230.364 187.18 230.664 187.54C230.964 187.88 231.114 188.3 231.114 188.8C231.114 189.38 230.924 189.87 230.544 190.27C230.184 190.67 229.694 190.87 229.074 190.87ZM240.117 215.26C239.117 215.26 238.247 215.09 237.507 214.75C236.787 214.43 236.227 213.96 235.827 213.34C235.427 212.72 235.227 212 235.227 211.18C235.487 210.86 235.887 210.47 236.427 210.01C236.967 209.57 237.557 209.13 238.197 208.69V208.51C237.197 208.33 236.427 207.99 235.887 207.49C235.347 206.97 235.057 206.31 235.017 205.51C235.377 205.15 235.757 204.81 236.157 204.49C236.577 204.15 237.027 203.83 237.507 203.53V203.05L239.277 203.59C238.737 203.89 238.347 204.16 238.107 204.4C237.867 204.64 237.747 204.88 237.747 205.12C237.747 205.5 237.987 205.78 238.467 205.96C238.967 206.14 239.587 206.27 240.327 206.35C241.087 206.43 241.897 206.52 242.757 206.62C243.617 206.72 244.427 206.88 245.187 207.1C245.947 207.32 246.567 207.64 247.047 208.06C247.527 208.48 247.767 209.07 247.767 209.83C247.767 210.51 247.557 211.17 247.137 211.81C246.717 212.47 246.137 213.06 245.397 213.58C244.677 214.1 243.857 214.51 242.937 214.81C242.037 215.11 241.097 215.26 240.117 215.26ZM241.197 213.46C241.917 213.46 242.577 213.34 243.177 213.1C243.777 212.86 244.257 212.54 244.617 212.14C244.997 211.74 245.187 211.3 245.187 210.82C245.187 210.46 245.047 210.17 244.767 209.95C244.507 209.73 243.987 209.53 243.207 209.35C242.427 209.19 241.277 209.01 239.757 208.81C239.257 209.19 238.877 209.6 238.617 210.04C238.357 210.5 238.227 210.95 238.227 211.39C238.227 212.01 238.487 212.51 239.007 212.89C239.547 213.27 240.277 213.46 241.197 213.46ZM241.197 202.51C242.037 202.51 242.687 202.24 243.147 201.7C243.607 201.16 243.837 200.4 243.837 199.42C243.837 198.32 243.557 197.44 242.997 196.78C242.457 196.12 241.727 195.79 240.807 195.79C239.967 195.79 239.317 196.07 238.857 196.63C238.397 197.17 238.167 197.94 238.167 198.94C238.167 200.02 238.437 200.89 238.977 201.55C239.537 202.19 240.277 202.51 241.197 202.51ZM240.597 204.13C239.537 204.13 238.607 203.94 237.807 203.56C237.007 203.16 236.377 202.61 235.917 201.91C235.477 201.19 235.257 200.37 235.257 199.45C235.257 198.41 235.517 197.48 236.037 196.66C236.557 195.84 237.257 195.18 238.137 194.68C239.037 194.18 240.027 193.93 241.107 193.93C241.707 193.93 242.257 193.99 242.757 194.11C243.257 194.21 243.717 194.26 244.137 194.26C244.537 194.22 245.107 194.12 245.847 193.96C246.587 193.78 247.407 193.56 248.307 193.3L248.427 193.45L248.067 195.4C247.667 195.46 247.237 195.51 246.777 195.55C246.337 195.57 245.967 195.6 245.667 195.64L245.547 195.79C246.347 196.65 246.747 197.66 246.747 198.82C246.747 199.82 246.467 200.72 245.907 201.52C245.367 202.32 244.637 202.96 243.717 203.44C242.797 203.9 241.757 204.13 240.597 204.13ZM249.684 206.56C250.244 206.5 250.634 206.36 250.854 206.14C251.074 205.9 251.184 205.5 251.184 204.94V189.61C251.184 189.03 251.094 188.62 250.914 188.38C250.734 188.12 250.424 187.99 249.984 187.99H249.354L249.204 187.87L249.354 186.64C249.874 186.58 250.444 186.5 251.064 186.4C251.704 186.28 252.334 186.17 252.954 186.07C253.574 185.95 254.104 185.84 254.544 185.74L254.724 186.22C254.624 186.36 254.524 186.88 254.424 187.78C254.324 188.66 254.234 189.84 254.154 191.32C254.094 192.8 254.034 194.49 253.974 196.39C254.174 196.21 254.454 195.99 254.814 195.73C255.194 195.45 255.594 195.18 256.014 194.92C256.454 194.64 256.874 194.41 257.274 194.23C257.674 194.05 257.994 193.96 258.234 193.96C259.594 193.96 260.644 194.3 261.384 194.98C262.144 195.64 262.524 196.59 262.524 197.83C262.524 198.11 262.494 198.56 262.434 199.18C262.394 199.78 262.334 200.45 262.254 201.19C262.194 201.93 262.134 202.64 262.074 203.32C262.034 203.98 262.014 204.51 262.014 204.91C262.014 205.47 262.084 205.88 262.224 206.14C262.384 206.38 262.644 206.5 263.004 206.5C263.124 206.5 263.284 206.5 263.484 206.5C263.684 206.48 263.854 206.46 263.994 206.44L264.054 206.56L263.814 208.09C263.434 208.07 262.944 208.05 262.344 208.03C261.764 208.01 261.274 208 260.874 208C260.634 208 260.334 208.01 259.974 208.03C259.614 208.07 259.234 208.11 258.834 208.15C258.434 208.19 258.044 208.24 257.664 208.3L257.814 206.8C258.374 206.66 258.774 206.45 259.014 206.17C259.254 205.87 259.374 205.47 259.374 204.97L259.524 199.36C259.524 198.42 259.334 197.71 258.954 197.23C258.574 196.73 258.014 196.48 257.274 196.48C256.834 196.48 256.294 196.62 255.654 196.9C255.034 197.18 254.464 197.53 253.944 197.95C253.924 198.61 253.904 199.3 253.884 200.02C253.884 200.74 253.874 201.51 253.854 202.33C253.854 203.13 253.854 204 253.854 204.94C253.854 205.52 253.934 205.92 254.094 206.14C254.254 206.36 254.504 206.47 254.844 206.47C254.964 206.47 255.114 206.47 255.294 206.47C255.474 206.45 255.634 206.44 255.774 206.44L255.834 206.56L255.564 208.09C255.164 208.07 254.674 208.05 254.094 208.03C253.514 208.01 253.014 208 252.594 208C252.174 208 251.664 208 251.064 208C250.464 208.02 249.934 208.05 249.474 208.09L249.684 206.56ZM271.076 208.36C269.696 208.36 268.696 208.08 268.076 207.52C267.476 206.94 267.176 206 267.176 204.7V197.62C267.176 197.06 267.056 196.67 266.816 196.45C266.596 196.23 266.156 196.11 265.496 196.09L265.316 195.88L265.466 194.74C266.026 194.46 266.566 194.16 267.086 193.84C267.606 193.5 268.066 193.18 268.466 192.88C268.886 192.56 269.206 192.3 269.426 192.1C269.666 191.9 269.786 191.8 269.786 191.8L270.506 192.1C270.506 192.1 270.476 192.31 270.416 192.73C270.356 193.15 270.286 193.75 270.206 194.53L274.226 194.44L274.346 194.53L274.046 196.33L270.086 196.24C270.026 197.14 269.976 198.18 269.936 199.36C269.896 200.54 269.876 201.85 269.876 203.29C269.876 204.23 270.036 204.91 270.356 205.33C270.696 205.73 271.256 205.93 272.036 205.93C272.496 205.93 272.926 205.85 273.326 205.69C273.746 205.51 273.956 205.42 273.956 205.42L274.286 206.29C274.286 206.29 274.156 206.4 273.896 206.62C273.656 206.82 273.346 207.06 272.966 207.34C272.606 207.6 272.246 207.83 271.886 208.03C271.546 208.25 271.276 208.36 271.076 208.36ZM281.594 208.15L281.774 206.68C282.354 206.6 282.784 206.42 283.064 206.14C283.344 205.84 283.484 205.44 283.484 204.94V197.32C283.464 196.84 283.324 196.52 283.064 196.36C282.804 196.2 282.304 196.11 281.564 196.09L281.444 195.91L281.654 194.68L283.484 194.35V194.17C283.484 192.43 283.774 190.93 284.354 189.67C284.954 188.41 285.784 187.44 286.844 186.76C287.924 186.08 289.194 185.74 290.654 185.74C291.674 185.74 292.494 185.84 293.114 186.04C293.754 186.24 294.074 186.34 294.074 186.34L294.194 186.7C294.194 186.7 294.084 186.92 293.864 187.36C293.664 187.78 293.444 188.31 293.204 188.95L292.844 189.04C292.844 189.04 292.694 188.95 292.394 188.77C292.114 188.57 291.724 188.38 291.224 188.2C290.744 188.02 290.184 187.93 289.544 187.93C288.804 187.93 288.204 188.11 287.744 188.47C287.284 188.83 286.934 189.39 286.694 190.15C286.454 190.91 286.324 191.89 286.304 193.09V194.53C287.024 194.53 287.684 194.52 288.284 194.5C288.884 194.48 289.364 194.47 289.724 194.47C290.104 194.45 290.294 194.44 290.294 194.44L290.414 194.53L290.084 196.33C290.084 196.33 289.914 196.32 289.574 196.3C289.234 196.28 288.774 196.27 288.194 196.27C287.614 196.25 286.974 196.24 286.274 196.24L286.154 204.88C286.154 205.9 286.624 206.41 287.564 206.41C288.064 206.41 288.494 206.4 288.854 206.38C289.214 206.36 289.394 206.35 289.394 206.35L289.454 206.47L289.214 208.09C289.214 208.09 289.064 208.08 288.764 208.06C288.484 208.04 288.124 208.03 287.684 208.03C287.244 208.03 286.804 208.02 286.364 208C285.924 208 285.544 208 285.224 208C284.804 208 284.384 208 283.964 208C283.544 208.02 283.154 208.04 282.794 208.06C282.434 208.1 282.144 208.12 281.924 208.12C281.704 208.14 281.594 208.15 281.594 208.15ZM297.143 208.36C295.943 208.36 294.883 208.08 293.963 207.52C293.063 206.96 292.353 206.17 291.833 205.15C291.333 204.13 291.083 202.95 291.083 201.61C291.083 200.13 291.383 198.82 291.983 197.68C292.603 196.52 293.453 195.61 294.533 194.95C295.613 194.29 296.823 193.96 298.163 193.96C299.383 193.96 300.443 194.24 301.343 194.8C302.263 195.36 302.973 196.15 303.473 197.17C303.973 198.17 304.223 199.35 304.223 200.71C304.223 202.17 303.913 203.48 303.293 204.64C302.693 205.8 301.853 206.71 300.773 207.37C299.713 208.03 298.503 208.36 297.143 208.36ZM297.863 206.53C298.863 206.53 299.643 206.13 300.203 205.33C300.783 204.51 301.073 203.37 301.073 201.91C301.073 200.69 300.913 199.64 300.593 198.76C300.293 197.86 299.863 197.17 299.303 196.69C298.763 196.21 298.113 195.97 297.353 195.97C296.373 195.97 295.593 196.38 295.013 197.2C294.453 198.02 294.173 199.16 294.173 200.62C294.173 201.86 294.323 202.92 294.623 203.8C294.923 204.68 295.353 205.36 295.913 205.84C296.473 206.3 297.123 206.53 297.863 206.53ZM306.798 206.65C307.398 206.59 307.798 206.41 307.998 206.11C308.198 205.79 308.298 205.2 308.298 204.34V198.04C308.298 197.36 308.208 196.89 308.028 196.63C307.848 196.35 307.538 196.21 307.098 196.21C306.958 196.21 306.818 196.23 306.678 196.27C306.558 196.29 306.498 196.3 306.498 196.3L306.348 196.09L306.468 194.89C307.208 194.75 307.928 194.61 308.628 194.47C309.348 194.33 309.948 194.21 310.428 194.11C310.908 193.99 311.148 193.93 311.148 193.93L311.388 194.14C311.388 194.14 311.358 194.3 311.298 194.62C311.258 194.92 311.218 195.3 311.178 195.76C311.138 196.2 311.118 196.65 311.118 197.11L311.238 197.2C311.878 196.28 312.578 195.54 313.338 194.98C314.118 194.4 314.828 194.11 315.468 194.11C315.788 194.11 316.028 194.13 316.188 194.17C316.368 194.21 316.458 194.23 316.458 194.23L316.548 194.41C316.548 194.41 316.528 194.56 316.488 194.86C316.448 195.14 316.388 195.52 316.308 196C316.248 196.48 316.188 197.01 316.128 197.59C316.088 198.15 316.048 198.69 316.008 199.21L314.508 199.3C314.508 198.42 314.458 197.84 314.358 197.56C314.258 197.28 314.028 197.14 313.668 197.14C313.288 197.14 312.878 197.29 312.438 197.59C312.018 197.89 311.618 198.31 311.238 198.85C311.238 198.85 311.228 199.03 311.208 199.39C311.188 199.75 311.168 200.21 311.148 200.77C311.128 201.31 311.098 201.87 311.058 202.45C311.038 203.03 311.018 203.54 310.998 203.98C310.978 204.42 310.968 204.7 310.968 204.82C310.968 205.42 311.058 205.84 311.238 206.08C311.438 206.3 311.788 206.41 312.288 206.41C312.548 206.41 312.848 206.4 313.188 206.38C313.528 206.34 313.698 206.32 313.698 206.32L313.758 206.47L313.458 208.09C313.458 208.09 313.338 208.08 313.098 208.06C312.878 208.06 312.588 208.05 312.228 208.03C311.868 208.03 311.488 208.02 311.088 208C310.708 208 310.358 208 310.038 208C309.438 208 308.878 208.01 308.358 208.03C307.838 208.05 307.418 208.07 307.098 208.09C306.778 208.11 306.618 208.12 306.618 208.12L306.798 206.65ZM327.859 208.48C327.859 208.48 327.799 208.27 327.679 207.85C327.559 207.41 327.389 206.83 327.169 206.11C326.969 205.39 326.739 204.61 326.479 203.77C326.239 202.93 325.989 202.08 325.729 201.22C325.489 200.36 325.259 199.58 325.039 198.88C324.839 198.18 324.669 197.63 324.529 197.23C324.209 196.23 323.569 195.72 322.609 195.7L322.549 195.58L322.759 194.29C322.759 194.29 322.919 194.29 323.239 194.29C323.559 194.29 323.919 194.3 324.319 194.32C324.719 194.32 325.049 194.32 325.309 194.32C325.949 194.32 326.549 194.3 327.109 194.26C327.689 194.22 328.159 194.19 328.519 194.17C328.879 194.13 329.059 194.11 329.059 194.11L329.119 194.26L328.909 195.55C328.269 195.57 327.839 195.64 327.619 195.76C327.419 195.86 327.319 196.05 327.319 196.33C327.319 196.47 327.369 196.78 327.469 197.26C327.589 197.74 327.729 198.32 327.889 199C328.069 199.66 328.249 200.34 328.429 201.04C328.609 201.74 328.779 202.4 328.939 203.02C329.119 203.62 329.259 204.12 329.359 204.52C329.459 204.9 329.509 205.09 329.509 205.09H329.719C329.959 204.47 330.199 203.85 330.439 203.23C330.679 202.61 330.899 202 331.099 201.4C331.319 200.8 331.519 200.25 331.699 199.75C331.899 199.25 332.069 198.8 332.209 198.4C332.369 197.98 332.489 197.64 332.569 197.38C332.409 196.82 332.189 196.41 331.909 196.15C331.649 195.87 331.229 195.73 330.649 195.73L330.559 195.58L330.769 194.29C330.769 194.29 330.929 194.29 331.249 194.29C331.569 194.29 331.929 194.3 332.329 194.32C332.729 194.32 333.059 194.32 333.319 194.32C333.959 194.32 334.559 194.31 335.119 194.29C335.679 194.25 336.139 194.22 336.499 194.2C336.859 194.16 337.039 194.14 337.039 194.14L337.099 194.29L336.889 195.58C336.229 195.62 335.799 195.69 335.599 195.79C335.399 195.87 335.299 196.05 335.299 196.33C335.299 196.45 335.349 196.75 335.449 197.23C335.569 197.71 335.709 198.29 335.869 198.97C336.029 199.63 336.199 200.32 336.379 201.04C336.579 201.74 336.759 202.4 336.919 203.02C337.099 203.62 337.239 204.12 337.339 204.52C337.439 204.9 337.489 205.09 337.489 205.09H337.699C338.339 203.41 338.889 201.97 339.349 200.77C339.809 199.55 340.159 198.57 340.399 197.83C340.659 197.09 340.789 196.61 340.789 196.39C340.789 196.13 340.709 195.95 340.549 195.85C340.389 195.75 340.099 195.7 339.679 195.7H338.719L338.599 195.52L338.779 194.26C338.779 194.26 338.939 194.27 339.259 194.29C339.579 194.29 339.969 194.3 340.429 194.32C340.909 194.32 341.379 194.32 341.839 194.32C342.199 194.32 342.579 194.32 342.979 194.32C343.379 194.3 343.719 194.29 343.999 194.29C344.279 194.29 344.419 194.29 344.419 194.29L344.179 195.7C343.779 195.76 343.469 195.92 343.249 196.18C343.029 196.42 342.759 196.94 342.439 197.74L338.449 208L335.899 208.48C335.879 208.38 335.789 208.06 335.629 207.52C335.489 206.96 335.299 206.27 335.059 205.45C334.819 204.61 334.569 203.74 334.309 202.84C334.049 201.92 333.799 201.05 333.559 200.23H333.319L330.469 208L327.859 208.48ZM345.25 206.56C345.81 206.5 346.2 206.36 346.42 206.14C346.64 205.9 346.75 205.5 346.75 204.94V189.61C346.75 189.03 346.66 188.62 346.48 188.38C346.3 188.12 345.99 187.99 345.55 187.99H344.92L344.77 187.87L344.92 186.64C345.44 186.58 346.01 186.5 346.63 186.4C347.27 186.28 347.9 186.17 348.52 186.07C349.14 185.95 349.67 185.84 350.11 185.74L350.29 186.22C350.19 186.36 350.09 186.88 349.99 187.78C349.89 188.66 349.8 189.84 349.72 191.32C349.66 192.8 349.6 194.49 349.54 196.39C349.74 196.21 350.02 195.99 350.38 195.73C350.76 195.45 351.16 195.18 351.58 194.92C352.02 194.64 352.44 194.41 352.84 194.23C353.24 194.05 353.56 193.96 353.8 193.96C355.16 193.96 356.21 194.3 356.95 194.98C357.71 195.64 358.09 196.59 358.09 197.83C358.09 198.11 358.06 198.56 358 199.18C357.96 199.78 357.9 200.45 357.82 201.19C357.76 201.93 357.7 202.64 357.64 203.32C357.6 203.98 357.58 204.51 357.58 204.91C357.58 205.47 357.65 205.88 357.79 206.14C357.95 206.38 358.21 206.5 358.57 206.5C358.69 206.5 358.85 206.5 359.05 206.5C359.25 206.48 359.42 206.46 359.56 206.44L359.62 206.56L359.38 208.09C359 208.07 358.51 208.05 357.91 208.03C357.33 208.01 356.84 208 356.44 208C356.2 208 355.9 208.01 355.54 208.03C355.18 208.07 354.8 208.11 354.4 208.15C354 208.19 353.61 208.24 353.23 208.3L353.38 206.8C353.94 206.66 354.34 206.45 354.58 206.17C354.82 205.87 354.94 205.47 354.94 204.97L355.09 199.36C355.09 198.42 354.9 197.71 354.52 197.23C354.14 196.73 353.58 196.48 352.84 196.48C352.4 196.48 351.86 196.62 351.22 196.9C350.6 197.18 350.03 197.53 349.51 197.95C349.49 198.61 349.47 199.3 349.45 200.02C349.45 200.74 349.44 201.51 349.42 202.33C349.42 203.13 349.42 204 349.42 204.94C349.42 205.52 349.5 205.92 349.66 206.14C349.82 206.36 350.07 206.47 350.41 206.47C350.53 206.47 350.68 206.47 350.86 206.47C351.04 206.45 351.2 206.44 351.34 206.44L351.4 206.56L351.13 208.09C350.73 208.07 350.24 208.05 349.66 208.03C349.08 208.01 348.58 208 348.16 208C347.74 208 347.23 208 346.63 208C346.03 208.02 345.5 208.05 345.04 208.09L345.25 206.56ZM371.773 208.36C370.933 208.36 370.273 208.16 369.793 207.76C369.313 207.36 369.033 206.77 368.953 205.99L368.773 205.93C368.333 206.37 367.893 206.77 367.453 207.13C367.033 207.47 366.653 207.74 366.313 207.94C365.973 208.14 365.693 208.24 365.473 208.24C364.713 208.24 364.033 208.07 363.433 207.73C362.833 207.37 362.363 206.89 362.023 206.29C361.683 205.69 361.513 205.01 361.513 204.25C361.513 203.65 361.663 203.13 361.963 202.69C362.263 202.23 362.663 201.93 363.163 201.79L368.893 200.32L368.923 199.27C368.923 198.35 368.693 197.63 368.233 197.11C367.793 196.57 367.153 196.3 366.313 196.3C365.753 196.3 365.153 196.44 364.513 196.72C363.893 196.98 363.303 197.33 362.743 197.77L362.563 197.65L362.113 196.15C362.673 195.83 363.293 195.5 363.973 195.16C364.653 194.82 365.293 194.54 365.893 194.32C366.513 194.08 366.983 193.96 367.303 193.96C368.303 193.96 369.133 194.13 369.793 194.47C370.473 194.79 370.983 195.25 371.323 195.85C371.663 196.43 371.833 197.12 371.833 197.92C371.833 198.18 371.803 198.59 371.743 199.15C371.683 199.71 371.613 200.33 371.533 201.01C371.453 201.69 371.383 202.35 371.323 202.99C371.283 203.61 371.263 204.11 371.263 204.49C371.263 204.91 371.363 205.24 371.563 205.48C371.783 205.7 372.073 205.81 372.433 205.81C372.733 205.81 373.033 205.74 373.333 205.6C373.653 205.44 373.893 205.29 374.053 205.15L374.503 205.72C374.323 206.02 374.083 206.36 373.783 206.74C373.503 207.1 373.183 207.43 372.823 207.73C372.483 208.03 372.133 208.24 371.773 208.36ZM366.253 205.84C366.593 205.84 366.993 205.73 367.453 205.51C367.913 205.27 368.333 204.98 368.713 204.64L368.833 201.7L365.143 202.75C364.623 202.91 364.363 203.29 364.363 203.89C364.363 204.43 364.533 204.89 364.873 205.27C365.233 205.65 365.693 205.84 366.253 205.84ZM380.852 208.36C379.472 208.36 378.472 208.08 377.852 207.52C377.252 206.94 376.952 206 376.952 204.7V197.62C376.952 197.06 376.832 196.67 376.592 196.45C376.372 196.23 375.932 196.11 375.272 196.09L375.092 195.88L375.242 194.74C375.802 194.46 376.342 194.16 376.862 193.84C377.382 193.5 377.842 193.18 378.242 192.88C378.662 192.56 378.982 192.3 379.202 192.1C379.442 191.9 379.562 191.8 379.562 191.8L380.282 192.1C380.282 192.1 380.252 192.31 380.192 192.73C380.132 193.15 380.062 193.75 379.982 194.53L384.002 194.44L384.122 194.53L383.822 196.33L379.862 196.24C379.802 197.14 379.752 198.18 379.712 199.36C379.672 200.54 379.652 201.85 379.652 203.29C379.652 204.23 379.812 204.91 380.132 205.33C380.472 205.73 381.032 205.93 381.812 205.93C382.272 205.93 382.702 205.85 383.102 205.69C383.522 205.51 383.732 205.42 383.732 205.42L384.062 206.29C384.062 206.29 383.932 206.4 383.672 206.62C383.432 206.82 383.122 207.06 382.742 207.34C382.382 207.6 382.022 207.83 381.662 208.03C381.322 208.25 381.052 208.36 380.852 208.36ZM386.344 196.03L385.444 195.58L385.354 195.19C385.814 194.75 386.174 194.26 386.434 193.72C386.714 193.18 386.854 192.69 386.854 192.25C386.854 191.79 386.704 191.37 386.404 190.99C386.124 190.59 385.754 190.3 385.294 190.12L385.264 189.7C386.004 188.84 386.734 188.41 387.454 188.41C387.994 188.41 388.444 188.67 388.804 189.19C389.184 189.69 389.374 190.31 389.374 191.05C389.374 191.79 389.104 192.61 388.564 193.51C388.044 194.39 387.304 195.23 386.344 196.03ZM395.534 208.36C394.794 208.36 394.134 208.3 393.554 208.18C392.994 208.06 392.554 207.94 392.234 207.82C391.934 207.7 391.784 207.64 391.784 207.64L391.664 207.4C391.704 207.14 391.744 206.77 391.784 206.29C391.844 205.79 391.894 205.27 391.934 204.73C391.994 204.19 392.024 203.75 392.024 203.41L393.344 203.26C393.364 204.44 393.594 205.29 394.034 205.81C394.474 206.33 395.184 206.59 396.164 206.59C396.824 206.59 397.384 206.44 397.844 206.14C398.304 205.84 398.534 205.47 398.534 205.03C398.534 204.73 398.444 204.45 398.264 204.19C398.084 203.93 397.754 203.65 397.274 203.35C396.814 203.03 396.144 202.66 395.264 202.24C394.104 201.66 393.254 201.06 392.714 200.44C392.194 199.82 391.934 199.13 391.934 198.37C391.934 197.51 392.184 196.75 392.684 196.09C393.184 195.43 393.874 194.91 394.754 194.53C395.654 194.15 396.654 193.96 397.754 193.96C398.654 193.96 399.404 194.05 400.004 194.23C400.624 194.39 400.934 194.47 400.934 194.47L401.024 194.68C401.024 194.68 400.984 194.86 400.904 195.22C400.844 195.58 400.764 196.04 400.664 196.6C400.584 197.16 400.514 197.77 400.454 198.43L399.074 198.55C399.074 198.55 399.084 198.46 399.104 198.28C399.124 198.1 399.134 197.95 399.134 197.83C399.134 197.11 398.944 196.59 398.564 196.27C398.204 195.93 397.634 195.76 396.854 195.76C396.234 195.76 395.714 195.91 395.294 196.21C394.874 196.49 394.664 196.84 394.664 197.26C394.664 197.7 394.844 198.11 395.204 198.49C395.584 198.85 396.194 199.25 397.034 199.69C398.154 200.23 399.024 200.73 399.644 201.19C400.264 201.63 400.694 202.07 400.934 202.51C401.194 202.95 401.324 203.44 401.324 203.98C401.324 204.78 401.064 205.52 400.544 206.2C400.024 206.86 399.324 207.39 398.444 207.79C397.564 208.17 396.594 208.36 395.534 208.36ZM409.748 206.65C410.348 206.59 410.748 206.41 410.948 206.11C411.148 205.79 411.248 205.2 411.248 204.34V198.04C411.248 197.36 411.158 196.89 410.978 196.63C410.798 196.35 410.488 196.21 410.048 196.21C409.908 196.21 409.768 196.23 409.628 196.27C409.508 196.29 409.448 196.3 409.448 196.3L409.298 196.09L409.418 194.89C410.158 194.75 410.878 194.61 411.578 194.47C412.298 194.33 412.898 194.21 413.378 194.11C413.858 193.99 414.098 193.93 414.098 193.93L414.338 194.14C414.338 194.14 414.308 194.3 414.248 194.62C414.208 194.92 414.168 195.3 414.128 195.76C414.088 196.2 414.068 196.65 414.068 197.11L414.188 197.2C414.828 196.28 415.528 195.54 416.288 194.98C417.068 194.4 417.778 194.11 418.418 194.11C418.738 194.11 418.978 194.13 419.138 194.17C419.318 194.21 419.408 194.23 419.408 194.23L419.498 194.41C419.498 194.41 419.478 194.56 419.438 194.86C419.398 195.14 419.338 195.52 419.258 196C419.198 196.48 419.138 197.01 419.078 197.59C419.038 198.15 418.998 198.69 418.958 199.21L417.458 199.3C417.458 198.42 417.408 197.84 417.308 197.56C417.208 197.28 416.978 197.14 416.618 197.14C416.238 197.14 415.828 197.29 415.388 197.59C414.968 197.89 414.568 198.31 414.188 198.85C414.188 198.85 414.178 199.03 414.158 199.39C414.138 199.75 414.118 200.21 414.098 200.77C414.078 201.31 414.048 201.87 414.008 202.45C413.988 203.03 413.968 203.54 413.948 203.98C413.928 204.42 413.918 204.7 413.918 204.82C413.918 205.42 414.008 205.84 414.188 206.08C414.388 206.3 414.738 206.41 415.238 206.41C415.498 206.41 415.798 206.4 416.138 206.38C416.478 206.34 416.648 206.32 416.648 206.32L416.708 206.47L416.408 208.09C416.408 208.09 416.288 208.08 416.048 208.06C415.828 208.06 415.538 208.05 415.178 208.03C414.818 208.03 414.438 208.02 414.038 208C413.658 208 413.308 208 412.988 208C412.388 208 411.828 208.01 411.308 208.03C410.788 208.05 410.368 208.07 410.048 208.09C409.728 208.11 409.568 208.12 409.568 208.12L409.748 206.65ZM421.162 208.36L421.342 206.83C421.942 206.69 422.372 206.47 422.632 206.17C422.892 205.85 423.022 205.43 423.022 204.91V197.8C423.022 197.22 422.932 196.8 422.752 196.54C422.572 196.28 422.272 196.15 421.852 196.15C421.712 196.15 421.552 196.17 421.372 196.21C421.212 196.25 421.132 196.27 421.132 196.27L421.252 194.89C421.852 194.79 422.442 194.69 423.022 194.59C423.602 194.49 424.132 194.39 424.612 194.29C425.092 194.19 425.472 194.11 425.752 194.05C426.052 193.99 426.202 193.96 426.202 193.96L426.412 194.38C426.312 194.58 426.212 195.01 426.112 195.67C426.032 196.33 425.962 197.15 425.902 198.13C425.842 199.09 425.792 200.16 425.752 201.34C425.732 202.5 425.722 203.71 425.722 204.97C425.722 205.49 425.792 205.87 425.932 206.11C426.092 206.35 426.352 206.47 426.712 206.47C426.872 206.47 427.072 206.46 427.312 206.44C427.552 206.42 427.672 206.41 427.672 206.41L427.732 206.56L427.462 208.09C427.462 208.09 427.362 208.08 427.162 208.06C426.982 208.06 426.742 208.05 426.442 208.03C426.142 208.03 425.822 208.02 425.482 208C425.142 208 424.822 208 424.522 208C424.062 208 423.572 208.03 423.052 208.09C422.532 208.15 422.082 208.21 421.702 208.27C421.342 208.33 421.162 208.36 421.162 208.36ZM424.162 190.87C423.582 190.87 423.142 190.69 422.842 190.33C422.562 189.97 422.422 189.55 422.422 189.07C422.422 188.49 422.612 188 422.992 187.6C423.372 187.2 423.862 187 424.462 187C425.022 187 425.452 187.18 425.752 187.54C426.052 187.88 426.202 188.3 426.202 188.8C426.202 189.38 426.012 189.87 425.632 190.27C425.272 190.67 424.782 190.87 424.162 190.87ZM435.205 215.26C434.205 215.26 433.335 215.09 432.595 214.75C431.875 214.43 431.315 213.96 430.915 213.34C430.515 212.72 430.315 212 430.315 211.18C430.575 210.86 430.975 210.47 431.515 210.01C432.055 209.57 432.645 209.13 433.285 208.69V208.51C432.285 208.33 431.515 207.99 430.975 207.49C430.435 206.97 430.145 206.31 430.105 205.51C430.465 205.15 430.845 204.81 431.245 204.49C431.665 204.15 432.115 203.83 432.595 203.53V203.05L434.365 203.59C433.825 203.89 433.435 204.16 433.195 204.4C432.955 204.64 432.835 204.88 432.835 205.12C432.835 205.5 433.075 205.78 433.555 205.96C434.055 206.14 434.675 206.27 435.415 206.35C436.175 206.43 436.985 206.52 437.845 206.62C438.705 206.72 439.515 206.88 440.275 207.1C441.035 207.32 441.655 207.64 442.135 208.06C442.615 208.48 442.855 209.07 442.855 209.83C442.855 210.51 442.645 211.17 442.225 211.81C441.805 212.47 441.225 213.06 440.485 213.58C439.765 214.1 438.945 214.51 438.025 214.81C437.125 215.11 436.185 215.26 435.205 215.26ZM436.285 213.46C437.005 213.46 437.665 213.34 438.265 213.1C438.865 212.86 439.345 212.54 439.705 212.14C440.085 211.74 440.275 211.3 440.275 210.82C440.275 210.46 440.135 210.17 439.855 209.95C439.595 209.73 439.075 209.53 438.295 209.35C437.515 209.19 436.365 209.01 434.845 208.81C434.345 209.19 433.965 209.6 433.705 210.04C433.445 210.5 433.315 210.95 433.315 211.39C433.315 212.01 433.575 212.51 434.095 212.89C434.635 213.27 435.365 213.46 436.285 213.46ZM436.285 202.51C437.125 202.51 437.775 202.24 438.235 201.7C438.695 201.16 438.925 200.4 438.925 199.42C438.925 198.32 438.645 197.44 438.085 196.78C437.545 196.12 436.815 195.79 435.895 195.79C435.055 195.79 434.405 196.07 433.945 196.63C433.485 197.17 433.255 197.94 433.255 198.94C433.255 200.02 433.525 200.89 434.065 201.55C434.625 202.19 435.365 202.51 436.285 202.51ZM435.685 204.13C434.625 204.13 433.695 203.94 432.895 203.56C432.095 203.16 431.465 202.61 431.005 201.91C430.565 201.19 430.345 200.37 430.345 199.45C430.345 198.41 430.605 197.48 431.125 196.66C431.645 195.84 432.345 195.18 433.225 194.68C434.125 194.18 435.115 193.93 436.195 193.93C436.795 193.93 437.345 193.99 437.845 194.11C438.345 194.21 438.805 194.26 439.225 194.26C439.625 194.22 440.195 194.12 440.935 193.96C441.675 193.78 442.495 193.56 443.395 193.3L443.515 193.45L443.155 195.4C442.755 195.46 442.325 195.51 441.865 195.55C441.425 195.57 441.055 195.6 440.755 195.64L440.635 195.79C441.435 196.65 441.835 197.66 441.835 198.82C441.835 199.82 441.555 200.72 440.995 201.52C440.455 202.32 439.725 202.96 438.805 203.44C437.885 203.9 436.845 204.13 435.685 204.13ZM444.772 206.56C445.332 206.5 445.722 206.36 445.942 206.14C446.162 205.9 446.272 205.5 446.272 204.94V189.61C446.272 189.03 446.182 188.62 446.002 188.38C445.822 188.12 445.512 187.99 445.072 187.99H444.442L444.292 187.87L444.442 186.64C444.962 186.58 445.532 186.5 446.152 186.4C446.792 186.28 447.422 186.17 448.042 186.07C448.662 185.95 449.192 185.84 449.632 185.74L449.812 186.22C449.712 186.36 449.612 186.88 449.512 187.78C449.412 188.66 449.322 189.84 449.242 191.32C449.182 192.8 449.122 194.49 449.062 196.39C449.262 196.21 449.542 195.99 449.902 195.73C450.282 195.45 450.682 195.18 451.102 194.92C451.542 194.64 451.962 194.41 452.362 194.23C452.762 194.05 453.082 193.96 453.322 193.96C454.682 193.96 455.732 194.3 456.472 194.98C457.232 195.64 457.612 196.59 457.612 197.83C457.612 198.11 457.582 198.56 457.522 199.18C457.482 199.78 457.422 200.45 457.342 201.19C457.282 201.93 457.222 202.64 457.162 203.32C457.122 203.98 457.102 204.51 457.102 204.91C457.102 205.47 457.172 205.88 457.312 206.14C457.472 206.38 457.732 206.5 458.092 206.5C458.212 206.5 458.372 206.5 458.572 206.5C458.772 206.48 458.942 206.46 459.082 206.44L459.142 206.56L458.902 208.09C458.522 208.07 458.032 208.05 457.432 208.03C456.852 208.01 456.362 208 455.962 208C455.722 208 455.422 208.01 455.062 208.03C454.702 208.07 454.322 208.11 453.922 208.15C453.522 208.19 453.132 208.24 452.752 208.3L452.902 206.8C453.462 206.66 453.862 206.45 454.102 206.17C454.342 205.87 454.462 205.47 454.462 204.97L454.612 199.36C454.612 198.42 454.422 197.71 454.042 197.23C453.662 196.73 453.102 196.48 452.362 196.48C451.922 196.48 451.382 196.62 450.742 196.9C450.122 197.18 449.552 197.53 449.032 197.95C449.012 198.61 448.992 199.3 448.972 200.02C448.972 200.74 448.962 201.51 448.942 202.33C448.942 203.13 448.942 204 448.942 204.94C448.942 205.52 449.022 205.92 449.182 206.14C449.342 206.36 449.592 206.47 449.932 206.47C450.052 206.47 450.202 206.47 450.382 206.47C450.562 206.45 450.722 206.44 450.862 206.44L450.922 206.56L450.652 208.09C450.252 208.07 449.762 208.05 449.182 208.03C448.602 208.01 448.102 208 447.682 208C447.262 208 446.752 208 446.152 208C445.552 208.02 445.022 208.05 444.562 208.09L444.772 206.56ZM466.164 208.36C464.784 208.36 463.784 208.08 463.164 207.52C462.564 206.94 462.264 206 462.264 204.7V197.62C462.264 197.06 462.144 196.67 461.904 196.45C461.684 196.23 461.244 196.11 460.584 196.09L460.404 195.88L460.554 194.74C461.114 194.46 461.654 194.16 462.174 193.84C462.694 193.5 463.154 193.18 463.554 192.88C463.974 192.56 464.294 192.3 464.514 192.1C464.754 191.9 464.874 191.8 464.874 191.8L465.594 192.1C465.594 192.1 465.564 192.31 465.504 192.73C465.444 193.15 465.374 193.75 465.294 194.53L469.314 194.44L469.434 194.53L469.134 196.33L465.174 196.24C465.114 197.14 465.064 198.18 465.024 199.36C464.984 200.54 464.964 201.85 464.964 203.29C464.964 204.23 465.124 204.91 465.444 205.33C465.784 205.73 466.344 205.93 467.124 205.93C467.584 205.93 468.014 205.85 468.414 205.69C468.834 205.51 469.044 205.42 469.044 205.42L469.374 206.29C469.374 206.29 469.244 206.4 468.984 206.62C468.744 206.82 468.434 207.06 468.054 207.34C467.694 207.6 467.334 207.83 466.974 208.03C466.634 208.25 466.364 208.36 466.164 208.36ZM474.176 208.33C473.536 208.33 473.056 208.15 472.736 207.79C472.416 207.41 472.256 206.95 472.256 206.41C472.256 205.79 472.446 205.28 472.826 204.88C473.226 204.48 473.736 204.28 474.356 204.28C474.996 204.28 475.476 204.47 475.796 204.85C476.136 205.21 476.306 205.67 476.306 206.23C476.306 206.81 476.116 207.31 475.736 207.73C475.356 208.13 474.836 208.33 474.176 208.33ZM493.166 208.36C493.166 208.36 493.016 208.34 492.716 208.3C492.416 208.26 492.036 208.22 491.576 208.18C491.116 208.14 490.626 208.1 490.106 208.06C489.606 208.02 489.156 208 488.756 208C488.256 208 487.726 208.03 487.166 208.09C486.606 208.15 486.126 208.2 485.726 208.24C485.346 208.3 485.156 208.33 485.156 208.33L485.336 206.68C486.236 206.5 486.836 206.24 487.136 205.9C487.436 205.54 487.586 204.94 487.586 204.1L487.616 192.04C487.616 191.4 487.546 190.97 487.406 190.75C487.286 190.53 487.016 190.42 486.596 190.42C486.396 190.42 486.176 190.43 485.936 190.45C485.696 190.47 485.576 190.48 485.576 190.48L485.456 190.3L485.696 188.74C485.696 188.74 485.816 188.75 486.056 188.77C486.296 188.77 486.596 188.78 486.956 188.8C487.336 188.8 487.716 188.81 488.096 188.83C488.496 188.83 488.836 188.83 489.116 188.83C489.456 188.83 489.886 188.83 490.406 188.83C490.926 188.81 491.436 188.79 491.936 188.77C492.456 188.75 492.886 188.74 493.226 188.74C493.586 188.72 493.766 188.71 493.766 188.71C495.766 188.71 497.496 189.08 498.956 189.82C500.416 190.54 501.546 191.58 502.346 192.94C503.166 194.28 503.576 195.86 503.576 197.68C503.576 199.22 503.316 200.64 502.796 201.94C502.276 203.22 501.546 204.35 500.606 205.33C499.666 206.29 498.566 207.04 497.306 207.58C496.046 208.1 494.666 208.36 493.166 208.36ZM491.906 190.66C491.526 190.66 491.266 190.7 491.126 190.78C491.006 190.86 490.936 191.05 490.916 191.35C490.796 194.39 490.696 197 490.616 199.18C490.536 201.36 490.496 202.93 490.496 203.89C490.496 204.53 490.586 205.03 490.766 205.39C490.946 205.75 491.266 206.01 491.726 206.17C492.206 206.31 492.876 206.38 493.736 206.38C495.716 206.38 497.246 205.7 498.326 204.34C499.426 202.96 499.976 201.01 499.976 198.49C499.976 196.75 499.676 195.3 499.076 194.14C498.476 192.98 497.576 192.11 496.376 191.53C495.176 190.95 493.686 190.66 491.906 190.66ZM511.654 208.36C510.454 208.36 509.394 208.08 508.474 207.52C507.574 206.96 506.864 206.17 506.344 205.15C505.844 204.13 505.594 202.95 505.594 201.61C505.594 200.13 505.894 198.82 506.494 197.68C507.114 196.52 507.964 195.61 509.044 194.95C510.124 194.29 511.334 193.96 512.674 193.96C513.894 193.96 514.954 194.24 515.854 194.8C516.774 195.36 517.484 196.15 517.984 197.17C518.484 198.17 518.734 199.35 518.734 200.71C518.734 202.17 518.424 203.48 517.804 204.64C517.204 205.8 516.364 206.71 515.284 207.37C514.224 208.03 513.014 208.36 511.654 208.36ZM512.374 206.53C513.374 206.53 514.154 206.13 514.714 205.33C515.294 204.51 515.584 203.37 515.584 201.91C515.584 200.69 515.424 199.64 515.104 198.76C514.804 197.86 514.374 197.17 513.814 196.69C513.274 196.21 512.624 195.97 511.864 195.97C510.884 195.97 510.104 196.38 509.524 197.2C508.964 198.02 508.684 199.16 508.684 200.62C508.684 201.86 508.834 202.92 509.134 203.8C509.434 204.68 509.864 205.36 510.424 205.84C510.984 206.3 511.634 206.53 512.374 206.53ZM529.47 206.8C530.01 206.66 530.4 206.45 530.64 206.17C530.88 205.87 531 205.47 531 204.97L531.12 199.36C531.12 198.42 530.93 197.71 530.55 197.23C530.17 196.73 529.61 196.48 528.87 196.48C528.45 196.48 528.02 196.57 527.58 196.75C527.16 196.91 526.78 197.1 526.44 197.32C526.1 197.52 525.84 197.69 525.66 197.83C525.64 198.37 525.61 198.99 525.57 199.69C525.55 200.39 525.52 201.09 525.48 201.79C525.44 202.49 525.41 203.13 525.39 203.71C525.37 204.27 525.36 204.68 525.36 204.94C525.36 205.5 525.44 205.9 525.6 206.14C525.76 206.36 526.02 206.47 526.38 206.47C526.54 206.47 526.73 206.46 526.95 206.44C527.19 206.42 527.31 206.41 527.31 206.41L527.37 206.53L527.1 208.09C527.1 208.09 526.93 208.08 526.59 208.06C526.27 208.04 525.88 208.02 525.42 208C524.98 208 524.56 208 524.16 208C523.7 208 523.22 208.01 522.72 208.03C522.22 208.07 521.79 208.1 521.43 208.12C521.09 208.16 520.92 208.18 520.92 208.18L521.13 206.65C521.71 206.57 522.11 206.41 522.33 206.17C522.57 205.91 522.69 205.5 522.69 204.94V198.04C522.69 197.36 522.58 196.89 522.36 196.63C522.16 196.37 521.79 196.24 521.25 196.24H520.89L520.77 196.09L520.89 194.86C521.69 194.72 522.45 194.59 523.17 194.47C523.91 194.33 524.51 194.21 524.97 194.11C525.45 193.99 525.69 193.93 525.69 193.93L525.9 194.2C525.9 194.2 525.85 194.41 525.75 194.83C525.67 195.23 525.61 195.69 525.57 196.21L525.66 196.33C525.86 196.17 526.15 195.96 526.53 195.7C526.91 195.42 527.31 195.15 527.73 194.89C528.15 194.63 528.55 194.41 528.93 194.23C529.31 194.05 529.61 193.96 529.83 193.96C531.17 193.96 532.22 194.31 532.98 195.01C533.74 195.69 534.12 196.63 534.12 197.83C534.12 198.11 534.09 198.56 534.03 199.18C533.99 199.78 533.94 200.45 533.88 201.19C533.82 201.93 533.76 202.64 533.7 203.32C533.66 203.98 533.64 204.51 533.64 204.91C533.64 205.47 533.72 205.88 533.88 206.14C534.04 206.38 534.3 206.5 534.66 206.5C534.82 206.5 535.02 206.49 535.26 206.47C535.52 206.45 535.65 206.44 535.65 206.44L535.71 206.56L535.44 208.09C535.44 208.09 535.34 208.08 535.14 208.06C534.96 208.06 534.71 208.05 534.39 208.03C534.09 208.03 533.77 208.02 533.43 208C533.11 208 532.81 208 532.53 208C532.21 208 531.87 208.01 531.51 208.03C531.15 208.07 530.8 208.11 530.46 208.15C530.12 208.19 529.84 208.22 529.62 208.24C529.42 208.28 529.32 208.3 529.32 208.3L529.47 206.8ZM547.671 208.36C546.831 208.36 546.171 208.16 545.691 207.76C545.211 207.36 544.931 206.77 544.851 205.99L544.671 205.93C544.231 206.37 543.791 206.77 543.351 207.13C542.931 207.47 542.551 207.74 542.211 207.94C541.871 208.14 541.591 208.24 541.371 208.24C540.611 208.24 539.931 208.07 539.331 207.73C538.731 207.37 538.261 206.89 537.921 206.29C537.581 205.69 537.411 205.01 537.411 204.25C537.411 203.65 537.561 203.13 537.861 202.69C538.161 202.23 538.561 201.93 539.061 201.79L544.791 200.32L544.821 199.27C544.821 198.35 544.591 197.63 544.131 197.11C543.691 196.57 543.051 196.3 542.211 196.3C541.651 196.3 541.051 196.44 540.411 196.72C539.791 196.98 539.201 197.33 538.641 197.77L538.461 197.65L538.011 196.15C538.571 195.83 539.191 195.5 539.871 195.16C540.551 194.82 541.191 194.54 541.791 194.32C542.411 194.08 542.881 193.96 543.201 193.96C544.201 193.96 545.031 194.13 545.691 194.47C546.371 194.79 546.881 195.25 547.221 195.85C547.561 196.43 547.731 197.12 547.731 197.92C547.731 198.18 547.701 198.59 547.641 199.15C547.581 199.71 547.511 200.33 547.431 201.01C547.351 201.69 547.281 202.35 547.221 202.99C547.181 203.61 547.161 204.11 547.161 204.49C547.161 204.91 547.261 205.24 547.461 205.48C547.681 205.7 547.971 205.81 548.331 205.81C548.631 205.81 548.931 205.74 549.231 205.6C549.551 205.44 549.791 205.29 549.951 205.15L550.401 205.72C550.221 206.02 549.981 206.36 549.681 206.74C549.401 207.1 549.081 207.43 548.721 207.73C548.381 208.03 548.031 208.24 547.671 208.36ZM542.151 205.84C542.491 205.84 542.891 205.73 543.351 205.51C543.811 205.27 544.231 204.98 544.611 204.64L544.731 201.7L541.041 202.75C540.521 202.91 540.261 203.29 540.261 203.89C540.261 204.43 540.431 204.89 540.771 205.27C541.131 205.65 541.591 205.84 542.151 205.84ZM556.75 208.36C555.37 208.36 554.37 208.08 553.75 207.52C553.15 206.94 552.85 206 552.85 204.7V197.62C552.85 197.06 552.73 196.67 552.49 196.45C552.27 196.23 551.83 196.11 551.17 196.09L550.99 195.88L551.14 194.74C551.7 194.46 552.24 194.16 552.76 193.84C553.28 193.5 553.74 193.18 554.14 192.88C554.56 192.56 554.88 192.3 555.1 192.1C555.34 191.9 555.46 191.8 555.46 191.8L556.18 192.1C556.18 192.1 556.15 192.31 556.09 192.73C556.03 193.15 555.96 193.75 555.88 194.53L559.9 194.44L560.02 194.53L559.72 196.33L555.76 196.24C555.7 197.14 555.65 198.18 555.61 199.36C555.57 200.54 555.55 201.85 555.55 203.29C555.55 204.23 555.71 204.91 556.03 205.33C556.37 205.73 556.93 205.93 557.71 205.93C558.17 205.93 558.6 205.85 559 205.69C559.42 205.51 559.63 205.42 559.63 205.42L559.96 206.29C559.96 206.29 559.83 206.4 559.57 206.62C559.33 206.82 559.02 207.06 558.64 207.34C558.28 207.6 557.92 207.83 557.56 208.03C557.22 208.25 556.95 208.36 556.75 208.36ZM567.972 208.36C566.652 208.36 565.502 208.08 564.522 207.52C563.542 206.96 562.782 206.18 562.242 205.18C561.702 204.16 561.432 202.97 561.432 201.61C561.432 200.55 561.612 199.56 561.972 198.64C562.332 197.72 562.822 196.91 563.442 196.21C564.082 195.51 564.812 194.96 565.632 194.56C566.452 194.16 567.332 193.96 568.272 193.96C571.432 193.96 573.012 195.52 573.012 198.64C573.012 198.92 572.982 199.21 572.922 199.51C572.882 199.81 572.842 200.05 572.802 200.23L572.442 200.56H564.402C564.402 202.16 564.722 203.42 565.362 204.34C566.002 205.26 566.902 205.78 568.062 205.9C569.242 206.02 570.622 205.72 572.202 205L572.382 205.09L572.802 206.23C572.382 206.53 571.882 206.85 571.302 207.19C570.742 207.51 570.162 207.78 569.562 208C568.982 208.24 568.452 208.36 567.972 208.36ZM564.462 199.21L569.292 198.97C569.552 198.93 569.722 198.87 569.802 198.79C569.902 198.69 569.952 198.5 569.952 198.22C569.952 197.44 569.762 196.85 569.382 196.45C569.002 196.05 568.452 195.85 567.732 195.85C566.872 195.85 566.142 196.15 565.542 196.75C564.962 197.33 564.602 198.15 564.462 199.21ZM577.594 208.33C576.954 208.33 576.474 208.15 576.154 207.79C575.834 207.41 575.674 206.95 575.674 206.41C575.674 205.79 575.864 205.28 576.244 204.88C576.644 204.48 577.154 204.28 577.774 204.28C578.414 204.28 578.894 204.47 579.214 204.85C579.554 205.21 579.724 205.67 579.724 206.23C579.724 206.81 579.534 207.31 579.154 207.73C578.774 208.13 578.254 208.33 577.594 208.33Z" fill="white"/>
<path d="M164.935 198.396C161.305 198.396 157.781 197.969 154.364 197.115C150.947 196.261 147.103 194.659 142.832 192.31C138.561 189.961 133.329 186.597 127.136 182.22C120.943 177.842 113.202 172.076 103.913 164.922C94.8368 164.922 86.9354 162.893 80.2085 158.836C73.4817 154.672 68.2497 148.852 64.5125 141.378C60.7754 133.797 58.9068 124.988 58.9068 114.951C58.9068 106.836 60.1881 99.3618 62.7507 92.5282C65.3133 85.6945 68.9437 79.7685 73.6418 74.75C78.4467 69.6248 84.0524 65.6741 90.459 62.898C96.8655 60.1218 103.859 58.7337 111.44 58.7337C120.837 58.7337 128.952 60.8158 135.785 64.9801C142.619 69.0376 147.904 74.8034 151.641 82.2777C155.485 89.6452 157.407 98.3474 157.407 108.384C157.407 117.033 155.859 124.988 152.762 132.249C149.666 139.403 145.395 145.596 139.949 150.828C134.504 155.953 128.204 159.637 121.05 161.879V163C127.884 167.698 134.023 171.489 139.469 174.372C144.914 177.255 149.933 179.39 154.524 180.778C159.116 182.166 163.44 182.86 167.497 182.86C171.235 182.86 174.331 182.593 176.787 182.059C179.35 181.526 180.631 181.259 180.631 181.259L181.592 181.899L182.873 186.544C182.873 186.544 182.339 186.918 181.272 187.665C180.311 188.519 179.083 189.534 177.588 190.708C176.093 191.883 174.491 193.057 172.783 194.232C171.181 195.406 169.686 196.367 168.298 197.115C166.91 197.969 165.789 198.396 164.935 198.396ZM108.557 154.351C114.644 154.351 119.876 152.803 124.253 149.706C128.738 146.503 132.208 142.019 134.664 136.253C137.227 130.487 138.508 123.707 138.508 115.912C138.508 106.516 137.173 98.5076 134.504 91.8875C131.834 85.1607 128.097 79.982 123.292 76.3517C118.594 72.7213 112.989 70.9061 106.475 70.9061C100.603 70.9061 95.4774 72.5078 91.0996 75.711C86.7218 78.8075 83.305 83.2387 80.8492 89.0046C78.5001 94.6637 77.3256 101.391 77.3256 109.185C77.3256 118.475 78.6069 126.483 81.1695 133.21C83.7321 139.936 87.3625 145.168 92.0606 148.906C96.7587 152.536 102.258 154.351 108.557 154.351ZM177.02 108.224C177.02 105.448 176.539 103.366 175.578 101.978C174.724 100.59 173.336 99.8957 171.414 99.8957C170.453 99.8957 169.492 100.002 168.531 100.216C167.677 100.323 167.25 100.376 167.25 100.376L168.051 93.0087C170.933 92.5816 173.87 92.1011 176.86 91.5672C179.849 90.9265 182.625 90.3393 185.188 89.8054C187.751 89.2715 189.833 88.8444 191.434 88.5241C193.036 88.2038 193.837 88.0436 193.837 88.0436L194.958 90.2859C194.424 91.674 193.89 93.9696 193.356 97.1729C192.929 100.376 192.502 104.167 192.075 108.544C191.648 112.922 191.328 117.567 191.114 122.479C190.901 127.284 190.794 132.088 190.794 136.893C190.794 146.503 194.638 151.308 202.325 151.308C205.422 151.308 208.412 150.454 211.295 148.745C214.178 146.93 216.847 145.222 219.303 143.62V108.384C219.303 105.181 218.769 102.992 217.701 101.818C216.633 100.643 214.605 100.056 211.615 100.056C211.295 100.056 210.654 100.109 209.693 100.216C208.839 100.216 208.412 100.216 208.412 100.216L209.213 92.8485C212.416 92.4214 215.566 91.9409 218.662 91.407C221.865 90.8731 224.748 90.3927 227.311 89.9656C229.98 89.4317 232.116 89.0046 233.717 88.6842C235.426 88.3639 236.28 88.2038 236.28 88.2038L237.401 90.446C236.761 92.0477 236.12 95.5179 235.479 100.857C234.945 106.195 234.465 112.709 234.038 120.397C233.717 127.978 233.557 135.932 233.557 144.261C233.557 146.503 234.091 148.265 235.159 149.546C236.333 150.721 237.828 151.308 239.644 151.308C241.245 151.308 242.687 151.041 243.968 150.507C245.249 149.867 246.317 149.279 247.171 148.745C248.025 148.105 248.453 147.784 248.453 147.784L250.855 150.667C250.855 150.667 250.374 151.361 249.413 152.75C248.453 154.138 247.171 155.739 245.57 157.554C244.075 159.37 242.42 161.025 240.605 162.52C238.896 163.908 237.241 164.708 235.639 164.922C226.457 164.922 221.385 160.704 220.424 152.269L219.463 151.789C214.765 155.632 210.547 158.782 206.81 161.238C203.073 163.694 200.51 164.922 199.122 164.922C191.755 164.922 186.096 163.267 182.145 159.957C178.194 156.647 176.219 151.842 176.219 145.542L177.02 108.224ZM290.57 164.922C283.523 164.922 277.384 163.427 272.152 160.437C266.92 157.448 262.862 153.283 259.979 147.945C257.096 142.499 255.655 136.146 255.655 128.885C255.655 123.226 256.616 117.941 258.538 113.029C260.46 108.117 263.076 103.793 266.386 100.056C269.803 96.3187 273.7 93.3824 278.078 91.2469C282.456 89.1113 287.154 88.0436 292.172 88.0436C309.043 88.0436 317.478 96.3721 317.478 113.029C317.478 114.524 317.318 116.072 316.997 117.674C316.784 119.275 316.57 120.557 316.357 121.518L314.435 123.28H271.511C271.511 131.822 273.219 138.548 276.636 143.46C280.053 148.372 284.858 151.148 291.051 151.789C297.351 152.429 304.718 150.828 313.153 146.984L314.114 147.464L316.357 153.55C314.114 155.152 311.445 156.86 308.349 158.676C305.359 160.384 302.262 161.825 299.059 163C295.963 164.281 293.133 164.922 290.57 164.922ZM271.831 116.072L297.618 114.791C299.006 114.577 299.913 114.257 300.34 113.83C300.874 113.296 301.141 112.282 301.141 110.787C301.141 106.623 300.127 103.473 298.098 101.337C296.069 99.2016 293.133 98.1339 289.289 98.1339C284.698 98.1339 280.8 99.7355 277.597 102.939C274.501 106.035 272.579 110.413 271.831 116.072ZM363.301 164.922C356.254 164.922 350.114 163.427 344.882 160.437C339.65 157.448 335.593 153.283 332.71 147.945C329.827 142.499 328.385 136.146 328.385 128.885C328.385 123.226 329.346 117.941 331.268 113.029C333.19 108.117 335.806 103.793 339.116 100.056C342.533 96.3187 346.43 93.3824 350.808 91.2469C355.186 89.1113 359.884 88.0436 364.902 88.0436C381.773 88.0436 390.208 96.3721 390.208 113.029C390.208 114.524 390.048 116.072 389.728 117.674C389.514 119.275 389.301 120.557 389.087 121.518L387.165 123.28H344.241C344.241 131.822 345.95 138.548 349.367 143.46C352.783 148.372 357.588 151.148 363.781 151.789C370.081 152.429 377.449 150.828 385.884 146.984L386.845 147.464L389.087 153.55C386.845 155.152 384.175 156.86 381.079 158.676C378.089 160.384 374.993 161.825 371.789 163C368.693 164.281 365.863 164.922 363.301 164.922ZM344.562 116.072L370.348 114.791C371.736 114.577 372.644 114.257 373.071 113.83C373.605 113.296 373.872 112.282 373.872 110.787C373.872 106.623 372.857 103.473 370.828 101.337C368.8 99.2016 365.863 98.1339 362.02 98.1339C357.428 98.1339 353.531 99.7355 350.328 102.939C347.231 106.035 345.309 110.413 344.562 116.072ZM404.479 155.793C407.682 155.472 409.818 154.511 410.886 152.91C411.953 151.201 412.487 148.051 412.487 143.46V109.826C412.487 106.195 412.007 103.686 411.046 102.298C410.085 100.803 408.43 100.056 406.081 100.056C405.333 100.056 404.586 100.163 403.838 100.376C403.198 100.483 402.877 100.536 402.877 100.536L402.077 99.4152L402.717 93.0087C406.668 92.2612 410.512 91.5138 414.249 90.7664C418.093 90.0189 421.296 89.3783 423.859 88.8444C426.421 88.2038 427.703 87.8834 427.703 87.8834L428.984 89.0046C428.984 89.0046 428.824 89.8588 428.504 91.5672C428.29 93.1688 428.076 95.1976 427.863 97.6534C427.649 100.002 427.543 102.405 427.543 104.861L428.183 105.341C431.6 100.43 435.337 96.4789 439.395 93.4891C443.559 90.3927 447.349 88.8444 450.766 88.8444C452.475 88.8444 453.756 88.9512 454.61 89.1647C455.571 89.3783 456.052 89.4851 456.052 89.4851L456.532 90.446C456.532 90.446 456.425 91.2469 456.212 92.8485C455.998 94.3433 455.678 96.3721 455.251 98.9347C454.93 101.497 454.61 104.327 454.29 107.423C454.076 110.413 453.863 113.296 453.649 116.072L445.641 116.553C445.641 111.855 445.374 108.758 444.84 107.263C444.306 105.768 443.078 105.021 441.156 105.021C439.128 105.021 436.939 105.822 434.59 107.423C432.347 109.025 430.212 111.267 428.183 114.15C428.183 114.15 428.13 115.111 428.023 117.033C427.916 118.955 427.809 121.411 427.703 124.401C427.596 127.284 427.436 130.273 427.222 133.37C427.115 136.466 427.009 139.189 426.902 141.538C426.795 143.887 426.742 145.382 426.742 146.023C426.742 149.226 427.222 151.468 428.183 152.75C429.251 153.924 431.12 154.511 433.789 154.511C435.177 154.511 436.779 154.458 438.594 154.351C440.409 154.138 441.317 154.031 441.317 154.031L441.637 154.832L440.035 163.48C440.035 163.48 439.395 163.427 438.113 163.32C436.939 163.32 435.391 163.267 433.469 163.16C431.547 163.16 429.518 163.107 427.382 163C425.354 163 423.485 163 421.777 163C418.573 163 415.584 163.053 412.808 163.16C410.031 163.267 407.789 163.374 406.081 163.48C404.372 163.587 403.518 163.641 403.518 163.641L404.479 155.793ZM540.139 164.922C531.063 164.922 523.161 162.893 516.434 158.836C509.708 154.672 504.476 148.852 500.738 141.378C497.001 133.797 495.133 124.988 495.133 114.951C495.133 106.836 496.414 99.3618 498.977 92.5282C501.539 85.6945 505.17 79.7685 509.868 74.75C514.673 69.6248 520.278 65.6741 526.685 62.898C533.091 60.1218 540.085 58.7337 547.666 58.7337C557.062 58.7337 565.177 60.8158 572.011 64.9801C578.845 69.0376 584.13 74.8034 587.867 82.2777C591.711 89.6452 593.633 98.3474 593.633 108.384C593.633 116.606 592.298 124.187 589.629 131.128C586.96 137.961 583.222 143.887 578.418 148.906C573.719 153.924 568.114 157.875 561.6 160.758C555.087 163.534 547.933 164.922 540.139 164.922ZM544.783 154.351C550.87 154.351 556.102 152.803 560.479 149.706C564.964 146.503 568.434 142.019 570.89 136.253C573.453 130.487 574.734 123.707 574.734 115.912C574.734 106.516 573.399 98.5076 570.73 91.8875C568.06 85.1607 564.323 79.982 559.518 76.3517C554.82 72.7213 549.214 70.9061 542.701 70.9061C536.829 70.9061 531.703 72.5078 527.326 75.711C522.948 78.8075 519.531 83.2387 517.075 89.0046C514.726 94.6637 513.551 101.391 513.551 109.185C513.551 118.475 514.833 126.483 517.395 133.21C519.958 139.936 523.588 145.168 528.286 148.906C532.985 152.536 538.484 154.351 544.783 154.351ZM612.307 108.224C612.307 105.448 611.827 103.366 610.866 101.978C610.011 100.59 608.623 99.8957 606.701 99.8957C605.74 99.8957 604.779 100.002 603.819 100.216C602.964 100.323 602.537 100.376 602.537 100.376L603.338 93.0087C606.221 92.5816 609.157 92.1011 612.147 91.5672C615.137 90.9265 617.913 90.3393 620.475 89.8054C623.038 89.2715 625.12 88.8444 626.722 88.5241C628.323 88.2038 629.124 88.0436 629.124 88.0436L630.245 90.2859C629.712 91.674 629.178 93.9696 628.644 97.1729C628.217 100.376 627.79 104.167 627.363 108.544C626.935 112.922 626.615 117.567 626.402 122.479C626.188 127.284 626.081 132.088 626.081 136.893C626.081 146.503 629.925 151.308 637.613 151.308C640.709 151.308 643.699 150.454 646.582 148.745C649.465 146.93 652.134 145.222 654.59 143.62V108.384C654.59 105.181 654.056 102.992 652.989 101.818C651.921 100.643 649.892 100.056 646.902 100.056C646.582 100.056 645.941 100.109 644.98 100.216C644.126 100.216 643.699 100.216 643.699 100.216L644.5 92.8485C647.703 92.4214 650.853 91.9409 653.95 91.407C657.153 90.8731 660.036 90.3927 662.598 89.9656C665.268 89.4317 667.403 89.0046 669.005 88.6842C670.713 88.3639 671.568 88.2038 671.568 88.2038L672.689 90.446C672.048 92.0477 671.407 95.5179 670.767 100.857C670.233 106.195 669.752 112.709 669.325 120.397C669.005 127.978 668.845 135.932 668.845 144.261C668.845 146.503 669.379 148.265 670.446 149.546C671.621 150.721 673.116 151.308 674.931 151.308C676.533 151.308 677.974 151.041 679.255 150.507C680.537 149.867 681.604 149.279 682.459 148.745C683.313 148.105 683.74 147.784 683.74 147.784L686.142 150.667C686.142 150.667 685.662 151.361 684.701 152.75C683.74 154.138 682.459 155.739 680.857 157.554C679.362 159.37 677.707 161.025 675.892 162.52C674.184 163.908 672.529 164.708 670.927 164.922C661.744 164.922 656.672 160.704 655.711 152.269L654.75 151.789C650.052 155.632 645.835 158.782 642.098 161.238C638.36 163.694 635.798 164.922 634.41 164.922C627.042 164.922 621.383 163.267 617.432 159.957C613.482 156.647 611.506 151.842 611.506 145.542L612.307 108.224ZM718.971 164.922C711.603 164.922 706.265 163.427 702.955 160.437C699.751 157.341 698.15 152.322 698.15 145.382V107.584C698.15 104.594 697.509 102.512 696.228 101.337C695.053 100.163 692.704 99.522 689.18 99.4152L688.22 98.294L689.02 92.2078C692.01 90.713 694.893 89.1113 697.669 87.4029C700.445 85.5878 702.901 83.8793 705.037 82.2777C707.279 80.5693 708.987 79.1812 710.162 78.1135C711.443 77.0457 712.084 76.5118 712.084 76.5118L715.928 78.1135C715.928 78.1135 715.768 79.2346 715.447 81.4769C715.127 83.7192 714.753 86.9224 714.326 91.0867L735.788 90.6062L736.429 91.0867L734.827 100.696L713.685 100.216C713.365 105.021 713.098 110.573 712.885 116.873C712.671 123.173 712.564 130.167 712.564 137.854C712.564 142.873 713.419 146.503 715.127 148.745C716.942 150.881 719.932 151.949 724.096 151.949C726.552 151.949 728.848 151.522 730.983 150.667C733.225 149.706 734.347 149.226 734.347 149.226L736.108 153.871C736.108 153.871 735.414 154.458 734.026 155.632C732.745 156.7 731.09 157.982 729.061 159.476C727.139 160.864 725.217 162.092 723.295 163.16C721.48 164.335 720.039 164.922 718.971 164.922Z" fill="white"/>
</svg>
